<svg viewBox="0 0 57 56" class="css-1h47l4s"><path d="M0.5 28C0.5 12.536 13.036 0 28.5 0C43.964 0 56.5 12.536 56.5 28C56.5 43.464 43.964 56 28.5 56C13.036 56 0.5 43.464 0.5 28Z" fill="black"></path><path d="M28.8182 19.359C30.0068 19.359 31.4968 18.5307 32.384 17.4264C33.1876 16.4256 33.7736 15.0279 33.7736 13.6302C33.7736 13.4404 33.7568 13.2506 33.7233 13.0953C32.4008 13.147 30.8104 14.0098 29.8561 15.1659C29.1028 16.046 28.4164 17.4264 28.4164 18.8413C28.4164 19.0484 28.4499 19.2555 28.4666 19.3245C28.5503 19.3418 28.6843 19.359 28.8182 19.359ZM24.6329 40.2381C26.2568 40.2381 26.9767 39.1165 29.0023 39.1165C31.0615 39.1165 31.5135 40.2036 33.3215 40.2036C35.0961 40.2036 36.2847 38.5126 37.4064 36.8561C38.6619 34.958 39.1809 33.0944 39.2144 33.0081C39.0972 32.9736 35.6988 31.5414 35.6988 27.5209C35.6988 24.0352 38.3773 22.465 38.528 22.3442C36.7535 19.7214 34.0581 19.6524 33.3215 19.6524C31.3294 19.6524 29.7055 20.8947 28.6843 20.8947C27.5794 20.8947 26.1229 19.7214 24.3986 19.7214C21.1173 19.7214 17.7858 22.5168 17.7858 27.7969C17.7858 31.0755 19.0247 34.5438 20.5481 36.787C21.8539 38.6851 22.9923 40.2381 24.6329 40.2381Z" fill="white"></path></svg>