<svg viewBox="0 0 79 32"><path fill="#24e0a6" d="M27.755 5.155A15.953 15.953 0 0015.992 0C7.152 0-.012 7.164-.012 16.004s7.164 16.004 16.004 16.004c4.653 0 8.84-1.985 11.763-5.155A15.953 15.953 0 0031.996 16c0-4.183-1.606-7.992-4.241-10.845z"></path><path fill="#438bff" d="M51.286 5.155A15.953 15.953 0 0039.523 0c-8.84 0-16.004 7.164-16.004 16.004s7.164 16.004 16.004 16.004c4.653 0 8.84-1.985 11.763-5.155A15.953 15.953 0 0055.527 16c0-4.179-1.61-7.992-4.241-10.845z"></path><path fill="#2c5bf2" d="M74.812 5.155A15.953 15.953 0 0063.049 0c-8.84 0-16.004 7.164-16.004 16.004s7.164 16.004 16.004 16.004c4.653 0 8.84-1.985 11.763-5.155A15.953 15.953 0 0079.053 16c0-4.183-1.61-7.992-4.241-10.845z"></path><path fill="#24e0bc" d="M27.755 5.155A15.953 15.953 0 0015.992 0C7.152 0-.012 7.164-.012 16.004s7.164 16.004 16.004 16.004c4.653 0 8.84-1.985 11.763-5.155A15.953 15.953 0 0123.514 16c0-4.183 1.61-7.992 4.241-10.845z"></path><path fill="#438bff" d="M51.282 5.155C48.359 1.985 44.171 0 39.519 0s-8.84 1.985-11.763 5.155a15.953 15.953 0 014.241 10.853c0 4.187-1.61 8-4.241 10.853 2.923 3.17 7.111 5.155 11.763 5.155s8.84-1.985 11.763-5.155c-2.631-2.853-4.241-6.662-4.241-10.853s1.61-8 4.241-10.853z"></path><path fill="#3a68f9" d="M27.755 5.155a15.953 15.953 0 00-4.241 10.853c0 4.187 1.61 8 4.241 10.853 2.631-2.853 4.241-6.662 4.241-10.853s-1.606-8-4.241-10.853z"></path><path fill="#2c5bf2" d="M63.049 0c-4.653 0-8.84 1.985-11.763 5.155a15.953 15.953 0 014.241 10.853c0 4.187-1.61 8-4.241 10.853a15.953 15.953 0 0011.763 5.155c8.84 0 16.004-7.164 16.004-16.004C79.053 7.164 71.885 0 63.049 0z"></path><path fill="#0049db" d="M51.282 5.155a15.953 15.953 0 00-4.241 10.853c0 4.187 1.61 8 4.241 10.853a15.953 15.953 0 004.241-10.853c.004-4.191-1.606-8-4.241-10.853z"></path></svg>